<?xml version="1.0" encoding="UTF-8" standalone="no"?>
<!DOCTYPE svg PUBLIC "-//W3C//DTD SVG 1.0//EN" "http://www.w3.org/TR/2001/REC-SVG-20010904/DTD/svg10.dtd">
<!-- Generated by Microsoft Visio 11.0, SVG Export, v1.0 MicroFrontend.svg Page-4 -->
<svg xmlns="http://www.w3.org/2000/svg" xmlns:xlink="http://www.w3.org/1999/xlink" xmlns:ev="http://www.w3.org/2001/xml-events"
		xmlns:v="http://schemas.microsoft.com/visio/2003/SVGExtensions/" viewBox="0 0 600 680"
		xml:space="preserve" color-interpolation-filters="sRGB" class="st38">
	<v:documentProperties v:langID="1033" v:viewMarkup="false">
		<v:userDefs>
			<v:ud v:nameU="msvSubprocessMaster" v:prompt="" v:val="VT4(Rectangle)"/>
			<v:ud v:nameU="msvNoAutoConnect" v:val="VT0(1):26"/>
		</v:userDefs>
	</v:documentProperties>

	<style type="text/css">
	<![CDATA[
		.st1 {visibility:visible}
		.st2 {fill:#cdcdcd;fill-opacity:0.5;stroke:#cdcdcd;stroke-linecap:round;stroke-linejoin:round;stroke-opacity:0.5;stroke-width:0.25}
		.st3 {fill:url(#grad30-6);stroke:#404040;stroke-linecap:round;stroke-linejoin:round;stroke-width:0.25}
		.st4 {fill:#000000;font-family:Calibri;font-size:1.00001em}
		.st5 {fill:url(#grad30-13);stroke:#404040;stroke-linecap:round;stroke-linejoin:round;stroke-width:0.25}
		.st6 {fill:url(#grad30-26);stroke:#404040;stroke-linecap:round;stroke-linejoin:round;stroke-width:0.25}
		.st7 {font-size:1em}
		.st8 {fill:url(#grad30-34);stroke:#404040;stroke-linecap:round;stroke-linejoin:round;stroke-width:0.25}
		.st9 {fill:#cdcdcd;fill-opacity:0.5}
		.st10 {stroke:#cdcdcd;stroke-linecap:round;stroke-linejoin:round;stroke-opacity:0.5;stroke-width:0.72}
		.st11 {fill:#ff00ff;fill-opacity:0}
		.st12 {stroke:#404040;stroke-linecap:round;stroke-linejoin:round;stroke-opacity:0;stroke-width:0.72}
		.st13 {fill:url(#grad30-46);stroke:#ffffff;stroke-linecap:round;stroke-linejoin:round;stroke-width:0.72}
		.st14 {fill:url(#grad32-50)}
		.st15 {stroke:#000000;stroke-linecap:round;stroke-linejoin:round;stroke-width:0.72}
		.st16 {stroke:#404040;stroke-linecap:round;stroke-linejoin:round;stroke-width:1.5}
		.st17 {stroke:#404040;stroke-linecap:round;stroke-linejoin:round;stroke-width:1}
		.st18 {stroke:#cdcdcd;stroke-dasharray:1.75,1.25;stroke-linecap:round;stroke-linejoin:round;stroke-opacity:0.5;stroke-width:0.25}
		.st19 {stroke:#404040;stroke-dasharray:1.75,1.25;stroke-linecap:round;stroke-linejoin:round;stroke-width:0.25}
		.st20 {fill:#ffffff;stroke:none;stroke-linecap:butt;stroke-width:7.2}
		.st21 {fill:#000000;font-family:Calibri;font-size:0.666664em}
		.st22 {fill:#cdcdcd;fill-opacity:0.5;stroke:none;stroke-linecap:butt;stroke-width:0.75}
		.st23 {fill:#ffffff;stroke:none;stroke-linecap:butt;stroke-width:0.75}
		.st24 {fill:url(#grad31-158);stroke:none;stroke-linecap:butt;stroke-width:0.75}
		.st25 {fill:url(#grad25-164);stroke:none;stroke-linecap:butt;stroke-width:0.75}
		.st26 {fill:url(#grad34-168);stroke:none;stroke-linecap:butt;stroke-width:0.75}
		.st27 {stroke:#ffffff;stroke-linecap:butt;stroke-width:0.5}
		.st28 {stroke:#19a94e;stroke-linecap:butt;stroke-width:0.5}
		.st29 {fill:none;stroke:none;stroke-linecap:butt;stroke-width:0.75}
		.st30 {fill:url(#grad39-183);stroke:none;stroke-linecap:butt;stroke-width:0.75}
		.st31 {fill:url(#grad39-187);stroke:none;stroke-linecap:butt;stroke-width:0.75}
		.st32 {fill:url(#grad34-194);stroke:none;stroke-linecap:butt;stroke-width:0.75}
		.st33 {fill:url(#grad30-200);stroke:none;stroke-linecap:butt;stroke-width:0.75}
		.st34 {fill:url(#grad27-196);stroke:none;stroke-linecap:butt;stroke-width:0.75}
		.st35 {fill:url(#grad31-210);stroke:none;stroke-linecap:butt;stroke-width:0.75}
		.st36 {fill:#9c9c9c;stroke:none;stroke-linecap:butt;stroke-width:0.75}
		.st37 {fill:none;stroke:#404040;stroke-linecap:round;stroke-linejoin:round;stroke-width:0.25}
		.st38 {fill:none;fill-rule:evenodd;font-size:12px;overflow:visible;stroke-linecap:square;stroke-miterlimit:3}
	]]>
	</style>

	<defs id="Patterns_And_Gradients">
		<linearGradient id="grad30-6" v:fillPattern="30" v:foreground="#d3dcba" v:background="#e0e6cd" x1="0" y1="1" x2="0" y2="0">
			<stop offset="0" style="stop-color:#d3dcba;stop-opacity:1"/>
			<stop offset="1" style="stop-color:#e0e6cd;stop-opacity:1"/>
		</linearGradient>
		<linearGradient id="grad30-13" v:fillPattern="30" v:foreground="#e2e8d2" v:background="#eff2e6" x1="0" y1="1" x2="0" y2="0">
			<stop offset="0" style="stop-color:#e2e8d2;stop-opacity:1"/>
			<stop offset="1" style="stop-color:#eff2e6;stop-opacity:1"/>
		</linearGradient>
		<linearGradient id="grad30-26" v:fillPattern="30" v:foreground="#d7d0e3" v:background="#e7e3ee" x1="0" y1="1" x2="0" y2="0">
			<stop offset="0" style="stop-color:#d7d0e3;stop-opacity:1"/>
			<stop offset="1" style="stop-color:#e7e3ee;stop-opacity:1"/>
		</linearGradient>
		<linearGradient id="grad30-34" v:fillPattern="30" v:foreground="#cbddeb" v:background="#e1ebf3" x1="0" y1="1" x2="0" y2="0">
			<stop offset="0" style="stop-color:#cbddeb;stop-opacity:1"/>
			<stop offset="1" style="stop-color:#e1ebf3;stop-opacity:1"/>
		</linearGradient>
		<linearGradient id="grad30-46" v:fillPattern="30" v:foreground="#ffffff" v:background="#f2f2f2" x1="0" y1="1" x2="0" y2="0">
			<stop offset="0" style="stop-color:#ffffff;stop-opacity:1"/>
			<stop offset="1" style="stop-color:#f2f2f2;stop-opacity:1"/>
		</linearGradient>
		<pattern id="grad32-50" v:fillPattern="32" v:foreground="#f0f0f0" v:background="#ffffff" x="0" y="0" width="1" height="1"
				patternContentUnits="objectBoundingBox">
			<path d="M 0 1 L 0 0 L 1 0 z" style="fill:url(#grad27-51)"/>
			<path d="M 0 1 L 1 1 L 1 0 z" style="fill:url(#grad28-52)"/>
		</pattern>
		<linearGradient id="grad27-51" v:fillPattern="32" v:foreground="#f0f0f0" v:background="#ffffff" x1="1" y1="0" x2="0" y2="0">
			<stop offset="0" style="stop-color:#f0f0f0;stop-opacity:1"/>
			<stop offset="1" style="stop-color:#ffffff;stop-opacity:1"/>
		</linearGradient>
		<linearGradient id="grad28-52" v:fillPattern="32" v:foreground="#f0f0f0" v:background="#ffffff" x1="0" y1="0" x2="0" y2="1">
			<stop offset="0" style="stop-color:#f0f0f0;stop-opacity:1"/>
			<stop offset="1" style="stop-color:#ffffff;stop-opacity:1"/>
		</linearGradient>
		<linearGradient id="grad30-93" v:fillPattern="30" v:foreground="#f0f0f0" v:background="#ffffff" x1="0" y1="1" x2="0" y2="0">
			<stop offset="0" style="stop-color:#f0f0f0;stop-opacity:1"/>
			<stop offset="1" style="stop-color:#ffffff;stop-opacity:1"/>
		</linearGradient>
		<pattern id="grad31-158" v:fillPattern="31" v:foreground="#ffffff" v:background="#f4f4f4" x="0" y="0" width="1" height="1"
				patternContentUnits="objectBoundingBox">
			<path d="M 0 0 L 0 1 L 1 1 z" style="fill:url(#grad28-159)"/>
			<path d="M 0 0 L 1 0 L 1 1 z" style="fill:url(#grad25-160)"/>
		</pattern>
		<linearGradient id="grad28-159" v:fillPattern="31" v:foreground="#ffffff" v:background="#f4f4f4" x1="0" y1="0" x2="0"
				y2="1">
			<stop offset="0" style="stop-color:#ffffff;stop-opacity:1"/>
			<stop offset="1" style="stop-color:#f4f4f4;stop-opacity:1"/>
		</linearGradient>
		<linearGradient id="grad25-160" v:fillPattern="31" v:foreground="#ffffff" v:background="#f4f4f4" x1="0" y1="0" x2="1"
				y2="0">
			<stop offset="0" style="stop-color:#ffffff;stop-opacity:1"/>
			<stop offset="1" style="stop-color:#f4f4f4;stop-opacity:1"/>
		</linearGradient>
		<linearGradient id="grad25-164" v:fillPattern="25" v:foreground="#bcbec0" v:background="#9d9fa1" x1="0" y1="0" x2="1"
				y2="0">
			<stop offset="0" style="stop-color:#bcbec0;stop-opacity:1"/>
			<stop offset="1" style="stop-color:#9d9fa1;stop-opacity:1"/>
		</linearGradient>
		<pattern id="grad34-168" v:fillPattern="34" v:foreground="#9c9c9c" v:background="#d3d3d3" x="0" y="0" width="1" height="1"
				patternContentUnits="objectBoundingBox">
			<path d="M 0 0 L 1 0 L 1 1 z" style="fill:url(#grad30-169)"/>
			<path d="M 0 0 L 0 1 L 1 1 z" style="fill:url(#grad27-170)"/>
		</pattern>
		<linearGradient id="grad30-169" v:fillPattern="34" v:foreground="#9c9c9c" v:background="#d3d3d3" x1="0" y1="1" x2="0"
				y2="0">
			<stop offset="0" style="stop-color:#9c9c9c;stop-opacity:1"/>
			<stop offset="1" style="stop-color:#d3d3d3;stop-opacity:1"/>
		</linearGradient>
		<linearGradient id="grad27-170" v:fillPattern="34" v:foreground="#9c9c9c" v:background="#d3d3d3" x1="1" y1="0" x2="0"
				y2="0">
			<stop offset="0" style="stop-color:#9c9c9c;stop-opacity:1"/>
			<stop offset="1" style="stop-color:#d3d3d3;stop-opacity:1"/>
		</linearGradient>
		<radialGradient id="grad39-183" v:fillPattern="39" v:foreground="#1a4795" v:background="#086bc2" cx="1" cy="1" r="1">
			<stop offset="0" style="stop-color:#1a4795;stop-opacity:1"/>
			<stop offset="1" style="stop-color:#086bc2;stop-opacity:1"/>
		</radialGradient>
		<radialGradient id="grad39-187" v:fillPattern="39" v:foreground="#1b4995" v:background="#27b3dd" cx="1" cy="1" r="1">
			<stop offset="0" style="stop-color:#1b4995;stop-opacity:1"/>
			<stop offset="1" style="stop-color:#27b3dd;stop-opacity:1"/>
		</radialGradient>
		<pattern id="grad34-194" v:fillPattern="34" v:foreground="#42bc33" v:background="#bde1a1" x="0" y="0" width="1" height="1"
				patternContentUnits="objectBoundingBox">
			<path d="M 0 0 L 1 0 L 1 1 z" style="fill:url(#grad30-195)"/>
			<path d="M 0 0 L 0 1 L 1 1 z" style="fill:url(#grad27-196)"/>
		</pattern>
		<linearGradient id="grad30-195" v:fillPattern="34" v:foreground="#42bc33" v:background="#bde1a1" x1="0" y1="1" x2="0"
				y2="0">
			<stop offset="0" style="stop-color:#42bc33;stop-opacity:1"/>
			<stop offset="1" style="stop-color:#bde1a1;stop-opacity:1"/>
		</linearGradient>
		<linearGradient id="grad27-196" v:fillPattern="34" v:foreground="#42bc33" v:background="#bde1a1" x1="1" y1="0" x2="0"
				y2="0">
			<stop offset="0" style="stop-color:#42bc33;stop-opacity:1"/>
			<stop offset="1" style="stop-color:#bde1a1;stop-opacity:1"/>
		</linearGradient>
		<linearGradient id="grad30-200" v:fillPattern="30" v:foreground="#19a94e" v:background="#abd782" x1="0" y1="1" x2="0"
				y2="0">
			<stop offset="0" style="stop-color:#19a94e;stop-opacity:1"/>
			<stop offset="1" style="stop-color:#abd782;stop-opacity:1"/>
		</linearGradient>
		<pattern id="grad31-210" v:fillPattern="31" v:foreground="#42bc33" v:background="#bde1a1" x="0" y="0" width="1" height="1"
				patternContentUnits="objectBoundingBox">
			<path d="M 0 0 L 0 1 L 1 1 z" style="fill:url(#grad28-211)"/>
			<path d="M 0 0 L 1 0 L 1 1 z" style="fill:url(#grad25-212)"/>
		</pattern>
		<linearGradient id="grad28-211" v:fillPattern="31" v:foreground="#42bc33" v:background="#bde1a1" x1="0" y1="0" x2="0"
				y2="1">
			<stop offset="0" style="stop-color:#42bc33;stop-opacity:1"/>
			<stop offset="1" style="stop-color:#bde1a1;stop-opacity:1"/>
		</linearGradient>
		<linearGradient id="grad25-212" v:fillPattern="31" v:foreground="#42bc33" v:background="#bde1a1" x1="0" y1="0" x2="1"
				y2="0">
			<stop offset="0" style="stop-color:#42bc33;stop-opacity:1"/>
			<stop offset="1" style="stop-color:#bde1a1;stop-opacity:1"/>
		</linearGradient>
	</defs>
	<g v:mID="6" v:index="4" v:groupContext="foregroundPage">
		<v:userDefs>
			<v:ud v:nameU="msvThemeColors" v:val="VT0(36):26"/>
			<v:ud v:nameU="msvThemeEffects" v:val="VT0(16):26"/>
			<v:ud v:nameU="msvThemeOrder" v:val="VT0(0):26"/>
		</v:userDefs>
		<title>Page-4</title>
		<v:pageProperties v:drawingScale="1" v:pageScale="1" v:drawingUnits="0" v:shadowOffsetX="9" v:shadowOffsetY="-9"/>
		<v:layer v:name="Connector" v:index="0"/>
		<g id="shape1-1" v:mID="1" v:groupContext="shape" transform="translate(243,-481.5)">
			<title>Octagon</title>
			<desc>Portal</desc>
			<v:userDefs>
				<v:ud v:nameU="visVersion" v:val="VT0(14):26"/>
				<v:ud v:nameU="msvThemeColors" v:val="VT0(36):26"/>
				<v:ud v:nameU="msvThemeEffects" v:val="VT0(16):26"/>
			</v:userDefs>
			<v:textBlock v:margins="rect(4,4,4,4)"/>
			<v:textRect cx="36" cy="756" width="72" height="72"/>
			<g id="shadow1-2" v:groupContext="shadow" v:shadowOffsetX="1.44" v:shadowOffsetY="-1.44" v:shadowType="1"
					transform="matrix(1,0,0,1,1.44,1.44)" class="st1">
				<path d="M50.91 720 L21.09 720 L0 741.09 L0 770.91 L21.09 792 L50.91 792 L72 770.91 L72 741.09 L50.91 720 Z"
						class="st2"/>
			</g>
			<path d="M50.91 720 L21.09 720 L0 741.09 L0 770.91 L21.09 792 L50.91 792 L72 770.91 L72 741.09 L50.91 720 Z"
					class="st3"/>
			<text x="21.38" y="759.6" class="st4" v:langID="1033"><v:paragraph v:horizAlign="1"/><v:tabList/>Portal</text>		</g>
		<g id="shape2-8" v:mID="2" v:groupContext="shape" transform="translate(153,-387)">
			<title>Octagon.2</title>
			<desc>App</desc>
			<v:userDefs>
				<v:ud v:nameU="visVersion" v:val="VT0(14):26"/>
				<v:ud v:nameU="msvThemeColors" v:val="VT0(36):26"/>
				<v:ud v:nameU="msvThemeEffects" v:val="VT0(16):26"/>
			</v:userDefs>
			<v:textBlock v:margins="rect(4,4,4,4)"/>
			<v:textRect cx="36" cy="756" width="72" height="72"/>
			<g id="shadow2-9" v:groupContext="shadow" v:shadowOffsetX="1.44" v:shadowOffsetY="-1.44" v:shadowType="1"
					transform="matrix(1,0,0,1,1.44,1.44)" class="st1">
				<path d="M50.91 720 L21.09 720 L0 741.09 L0 770.91 L21.09 792 L50.91 792 L72 770.91 L72 741.09 L50.91 720 Z"
						class="st2"/>
			</g>
			<path d="M50.91 720 L21.09 720 L0 741.09 L0 770.91 L21.09 792 L50.91 792 L72 770.91 L72 741.09 L50.91 720 Z"
					class="st5"/>
			<text x="26.22" y="759.6" class="st4" v:langID="1033"><v:paragraph v:horizAlign="1"/><v:tabList/>App</text>		</g>
		<g id="shape3-15" v:mID="3" v:groupContext="shape" transform="translate(333,-387)">
			<title>Octagon.3</title>
			<desc>App</desc>
			<v:userDefs>
				<v:ud v:nameU="visVersion" v:val="VT0(14):26"/>
				<v:ud v:nameU="msvThemeColors" v:val="VT0(36):26"/>
				<v:ud v:nameU="msvThemeEffects" v:val="VT0(16):26"/>
			</v:userDefs>
			<v:textBlock v:margins="rect(4,4,4,4)"/>
			<v:textRect cx="36" cy="756" width="72" height="72"/>
			<g id="shadow3-16" v:groupContext="shadow" v:shadowOffsetX="1.44" v:shadowOffsetY="-1.44" v:shadowType="1"
					transform="matrix(1,0,0,1,1.44,1.44)" class="st1">
				<path d="M50.91 720 L21.09 720 L0 741.09 L0 770.91 L21.09 792 L50.91 792 L72 770.91 L72 741.09 L50.91 720 Z"
						class="st2"/>
			</g>
			<path d="M50.91 720 L21.09 720 L0 741.09 L0 770.91 L21.09 792 L50.91 792 L72 770.91 L72 741.09 L50.91 720 Z"
					class="st5"/>
			<text x="26.22" y="759.6" class="st4" v:langID="1033"><v:paragraph v:horizAlign="1"/><v:tabList/>App</text>		</g>
		<g id="shape5-21" v:mID="5" v:groupContext="shape" transform="translate(432,-481.5)">
			<title>Octagon.5</title>
			<desc>Identity Provider</desc>
			<v:userDefs>
				<v:ud v:nameU="visVersion" v:val="VT0(14):26"/>
				<v:ud v:nameU="msvThemeColors" v:val="VT0(36):26"/>
				<v:ud v:nameU="msvThemeEffects" v:val="VT0(16):26"/>
			</v:userDefs>
			<v:textBlock v:margins="rect(4,4,4,4)"/>
			<v:textRect cx="36" cy="756" width="72" height="72"/>
			<g id="shadow5-22" v:groupContext="shadow" v:shadowOffsetX="1.44" v:shadowOffsetY="-1.44" v:shadowType="1"
					transform="matrix(1,0,0,1,1.44,1.44)" class="st1">
				<path d="M50.91 720 L21.09 720 L0 741.09 L0 770.91 L21.09 792 L50.91 792 L72 770.91 L72 741.09 L50.91 720 Z"
						class="st2"/>
			</g>
			<path d="M50.91 720 L21.09 720 L0 741.09 L0 770.91 L21.09 792 L50.91 792 L72 770.91 L72 741.09 L50.91 720 Z"
					class="st6"/>
			<text x="17.09" y="752.4" class="st4" v:langID="1033"><v:paragraph v:horizAlign="1"/><v:tabList/>Identity<v:lf/><tspan
						x="15.33" dy="1.2em" class="st7">Provider</tspan></text>		</g>
		<g id="shape7-29" v:mID="7" v:groupContext="shape" transform="translate(90,-265.5)">
			<title>Octagon.7</title>
			<desc>API Service</desc>
			<v:userDefs>
				<v:ud v:nameU="visVersion" v:val="VT0(14):26"/>
				<v:ud v:nameU="msvThemeColors" v:val="VT0(36):26"/>
				<v:ud v:nameU="msvThemeEffects" v:val="VT0(16):26"/>
			</v:userDefs>
			<v:textBlock v:margins="rect(4,4,4,4)"/>
			<v:textRect cx="36" cy="756" width="72" height="72"/>
			<g id="shadow7-30" v:groupContext="shadow" v:shadowOffsetX="1.44" v:shadowOffsetY="-1.44" v:shadowType="1"
					transform="matrix(1,0,0,1,1.44,1.44)" class="st1">
				<path d="M50.91 720 L21.09 720 L0 741.09 L0 770.91 L21.09 792 L50.91 792 L72 770.91 L72 741.09 L50.91 720 Z"
						class="st2"/>
			</g>
			<path d="M50.91 720 L21.09 720 L0 741.09 L0 770.91 L21.09 792 L50.91 792 L72 770.91 L72 741.09 L50.91 720 Z"
					class="st8"/>
			<text x="9.12" y="759.6" class="st4" v:langID="1033"><v:paragraph v:horizAlign="1"/><v:tabList/>API Service</text>		</g>
		<g id="group6-36" transform="translate(334.134,-163.134)" v:mID="6" v:groupContext="group">
			<v:custProps>
				<v:cp v:nameU="ShapeClass" v:lbl="ShapeClass" v:type="0" v:invis="true" v:ask="false" v:langID="1033"
						v:val="VT4(Connectivity)"/>
				<v:cp v:nameU="ShapeType" v:lbl="ShapeType" v:type="0" v:invis="true" v:ask="false" v:langID="1033"
						v:val="VT4(Conceptual)"/>
				<v:cp v:nameU="SubShapeType" v:lbl="SubShapeType" v:type="0" v:invis="true" v:ask="false" v:langID="1033"
						v:val="VT4(Data)"/>
			</v:custProps>
			<v:userDefs>
				<v:ud v:nameU="visLegendShape" v:val="VT0(2):26"/>
				<v:ud v:nameU="HasText" v:val="VT0(1):5"/>
				<v:ud v:nameU="SolSH" v:val="VT14({BF0433D9-CD73-4EB5-8390-8653BE590246}):41"/>
				<v:ud v:nameU="ShapeClass" v:val="VT0(4):26"/>
				<v:ud v:nameU="ShapeType" v:val="VT0(7):26"/>
				<v:ud v:nameU="SubShapeType" v:val="VT0(15):26"/>
				<v:ud v:nameU="visVersion" v:prompt="" v:val="VT0(14):26"/>
				<v:ud v:nameU="msvThemeColors" v:val="VT0(36):26"/>
				<v:ud v:nameU="msvThemeEffects" v:val="VT0(16):26"/>
			</v:userDefs>
			<title>Configuration management database</title>
			<desc>Database</desc>
			<g id="shape8-37" v:mID="8" v:groupContext="shape" transform="translate(0,0.000575512)">
				<title>Sheet.8</title>
				<v:userDefs>
					<v:ud v:nameU="msvThemeColors" v:val="VT0(36):26"/>
					<v:ud v:nameU="msvThemeEffects" v:val="VT0(16):26"/>
				</v:userDefs>
				<g id="shadow8-38" v:groupContext="shadow" v:shadowOffsetX="1.44" v:shadowOffsetY="-1.44" v:shadowType="1"
						transform="matrix(1,0,0,1,1.44,1.44)" class="st1">
					<path d="M70.74 741.69 A35.3699 20.5513 0.18 0 1 69.89 746.24 A35.3699 20.5513 -179.82 0 0 70.74 741.69 L70.74
								 741.69 ZM70.74 741.69 A35.3699 20.5513 -179.82 0 0 0 741.69 L0 771.45 A35.37 20.5514 -179.82 0 0
								 70.74 771.45 L70.87 771.45 L70.87 741.69 L70.74 741.69 L70.74 741.69 Z" class="st9"/>
					<path d="M70.74 741.69 A35.3699 20.5513 0.18 0 1 69.89 746.24 A35.3699 20.5513 -179.82 0 0 70.74 741.69M70.74
								 741.69 A35.3699 20.5513 -179.82 0 0 0 741.69 L0 771.45 A35.37 20.5514 -179.82 0 0 70.74 771.45 L70.87
								 771.45 L70.87 741.69 L70.74 741.69" class="st10"/>
				</g>
				<path d="M70.74 741.69 A35.3699 20.5513 0.18 0 1 69.89 746.24 A35.3699 20.5513 -179.82 0 0 70.74 741.69 L70.74 741.69
							 ZM70.74 741.69 A35.3699 20.5513 -179.82 0 0 0 741.69 L0 771.45 A35.37 20.5514 -179.82 0 0 70.74 771.45
							 L70.87 771.45 L70.87 741.69 L70.74 741.69 L70.74 741.69 Z" class="st11"/>
				<path d="M70.74 741.69 A35.3699 20.5513 0.18 0 1 69.89 746.24 A35.3699 20.5513 -179.82 0 0 70.74 741.69M70.74 741.69
							 A35.3699 20.5513 -179.82 0 0 0 741.69 L0 771.45 A35.37 20.5514 -179.82 0 0 70.74 771.45 L70.87 771.45
							 L70.87 741.69 L70.74 741.69" class="st12"/>
			</g>
			<g id="shape9-43" v:mID="9" v:groupContext="shape" transform="translate(-7.99361E-015,-29.7632)">
				<title>Sheet.9</title>
				<v:userDefs>
					<v:ud v:nameU="msvThemeColors" v:val="VT0(36):26"/>
					<v:ud v:nameU="msvThemeEffects" v:val="VT0(16):26"/>
				</v:userDefs>
				<path d="M0 771.34 A35.3699 20.5513 -179.82 1 1 70.74 771.56 A35.3699 20.5513 -179.82 1 1 0 771.34 Z" class="st13"/>
			</g>
			<g id="shape10-47" v:mID="10" v:groupContext="shape">
				<title>Sheet.10</title>
				<v:userDefs>
					<v:ud v:nameU="msvThemeColors" v:val="VT0(36):26"/>
					<v:ud v:nameU="msvThemeEffects" v:val="VT0(16):26"/>
				</v:userDefs>
				<path d="M0 741.69 L0 771.34 L0 771.45 A35.37 20.5514 -179.82 0 0 70.74 771.45 L70.87 771.45 L70.87 741.69 L70.74
							 741.69 A35.3699 20.5513 0.18 0 1 0 741.69 L0 741.69 Z" class="st14"/>
				<path d="M0 741.69 L0 771.34 L0 771.45 A35.37 20.5514 -179.82 0 0 70.74 771.45 L70.87 771.45 L70.87 741.69 L70.74
							 741.69 A35.3699 20.5513 0.18 0 1 0 741.69" class="st15"/>
			</g>
			<g id="shape11-54" v:mID="11" v:groupContext="shape" transform="translate(0,0.000575512)">
				<title>Sheet.11</title>
				<v:userDefs>
					<v:ud v:nameU="msvThemeColors" v:val="VT0(36):26"/>
					<v:ud v:nameU="msvThemeEffects" v:val="VT0(16):26"/>
				</v:userDefs>
				<path d="M70.74 741.69 A35.3699 20.5513 -179.82 1 0 0 741.69 L0 771.45 A35.37 20.5514 -179.82 0 0 70.74 771.45 L70.87
							 771.45 L70.87 741.69 L70.74 741.69" class="st16"/>
			</g>
			<g id="shape6-57" v:mID="6" v:groupContext="groupContent">
				<v:textBlock v:margins="rect(4,4,4,4)"/>
				<v:textRect cx="35.4331" cy="803.202" width="56.34" height="22.4037"/>
				<text x="12.63" y="806.8" class="st4" v:langID="1033"><v:paragraph v:horizAlign="1"/><v:tabList/>Database</text>			</g>
		</g>
		<g id="shape4-59" v:mID="4" v:groupContext="shape" transform="translate(216,-266.067)">
			<title>Octagon.4</title>
			<desc>API Service</desc>
			<v:userDefs>
				<v:ud v:nameU="visVersion" v:val="VT0(14):26"/>
				<v:ud v:nameU="msvThemeColors" v:val="VT0(36):26"/>
				<v:ud v:nameU="msvThemeEffects" v:val="VT0(16):26"/>
			</v:userDefs>
			<v:textBlock v:margins="rect(4,4,4,4)"/>
			<v:textRect cx="36" cy="756" width="72" height="72"/>
			<g id="shadow4-60" v:groupContext="shadow" v:shadowOffsetX="1.44" v:shadowOffsetY="-1.44" v:shadowType="1"
					transform="matrix(1,0,0,1,1.44,1.44)" class="st1">
				<path d="M50.91 720 L21.09 720 L0 741.09 L0 770.91 L21.09 792 L50.91 792 L72 770.91 L72 741.09 L50.91 720 Z"
						class="st2"/>
			</g>
			<path d="M50.91 720 L21.09 720 L0 741.09 L0 770.91 L21.09 792 L50.91 792 L72 770.91 L72 741.09 L50.91 720 Z"
					class="st8"/>
			<text x="9.12" y="759.6" class="st4" v:langID="1033"><v:paragraph v:horizAlign="1"/><v:tabList/>API Service</text>		</g>
		<g id="group12-65" transform="translate(216.567,-163.134)" v:mID="12" v:groupContext="group">
			<v:custProps>
				<v:cp v:nameU="ShapeClass" v:lbl="ShapeClass" v:type="0" v:invis="true" v:ask="false" v:langID="1033"
						v:val="VT4(Connectivity)"/>
				<v:cp v:nameU="ShapeType" v:lbl="ShapeType" v:type="0" v:invis="true" v:ask="false" v:langID="1033"
						v:val="VT4(Conceptual)"/>
				<v:cp v:nameU="SubShapeType" v:lbl="SubShapeType" v:type="0" v:invis="true" v:ask="false" v:langID="1033"
						v:val="VT4(Data)"/>
			</v:custProps>
			<v:userDefs>
				<v:ud v:nameU="visLegendShape" v:val="VT0(2):26"/>
				<v:ud v:nameU="HasText" v:val="VT0(1):5"/>
				<v:ud v:nameU="SolSH" v:val="VT14({BF0433D9-CD73-4EB5-8390-8653BE590246}):41"/>
				<v:ud v:nameU="ShapeClass" v:val="VT0(4):26"/>
				<v:ud v:nameU="ShapeType" v:val="VT0(7):26"/>
				<v:ud v:nameU="SubShapeType" v:val="VT0(15):26"/>
				<v:ud v:nameU="visVersion" v:prompt="" v:val="VT0(14):26"/>
				<v:ud v:nameU="msvThemeColors" v:val="VT0(36):26"/>
				<v:ud v:nameU="msvThemeEffects" v:val="VT0(16):26"/>
			</v:userDefs>
			<title>Configuration management database.12</title>
			<desc>Database</desc>
			<g id="shape13-66" v:mID="13" v:groupContext="shape" transform="translate(0,0.000575512)">
				<title>Sheet.13</title>
				<v:userDefs>
					<v:ud v:nameU="msvThemeColors" v:val="VT0(36):26"/>
					<v:ud v:nameU="msvThemeEffects" v:val="VT0(16):26"/>
				</v:userDefs>
				<g id="shadow13-67" v:groupContext="shadow" v:shadowOffsetX="1.44" v:shadowOffsetY="-1.44" v:shadowType="1"
						transform="matrix(1,0,0,1,1.44,1.44)" class="st1">
					<path d="M70.74 741.69 A35.3699 20.5513 0.18 0 1 69.89 746.24 A35.3699 20.5513 -179.82 0 0 70.74 741.69 L70.74
								 741.69 ZM70.74 741.69 A35.3699 20.5513 -179.82 0 0 0 741.69 L0 771.45 A35.37 20.5514 -179.82 0 0
								 70.74 771.45 L70.87 771.45 L70.87 741.69 L70.74 741.69 L70.74 741.69 Z" class="st9"/>
					<path d="M70.74 741.69 A35.3699 20.5513 0.18 0 1 69.89 746.24 A35.3699 20.5513 -179.82 0 0 70.74 741.69M70.74
								 741.69 A35.3699 20.5513 -179.82 0 0 0 741.69 L0 771.45 A35.37 20.5514 -179.82 0 0 70.74 771.45 L70.87
								 771.45 L70.87 741.69 L70.74 741.69" class="st10"/>
				</g>
				<path d="M70.74 741.69 A35.3699 20.5513 0.18 0 1 69.89 746.24 A35.3699 20.5513 -179.82 0 0 70.74 741.69 L70.74 741.69
							 ZM70.74 741.69 A35.3699 20.5513 -179.82 0 0 0 741.69 L0 771.45 A35.37 20.5514 -179.82 0 0 70.74 771.45
							 L70.87 771.45 L70.87 741.69 L70.74 741.69 L70.74 741.69 Z" class="st11"/>
				<path d="M70.74 741.69 A35.3699 20.5513 0.18 0 1 69.89 746.24 A35.3699 20.5513 -179.82 0 0 70.74 741.69M70.74 741.69
							 A35.3699 20.5513 -179.82 0 0 0 741.69 L0 771.45 A35.37 20.5514 -179.82 0 0 70.74 771.45 L70.87 771.45
							 L70.87 741.69 L70.74 741.69" class="st12"/>
			</g>
			<g id="shape14-72" v:mID="14" v:groupContext="shape" transform="translate(-7.99361E-015,-29.7632)">
				<title>Sheet.14</title>
				<v:userDefs>
					<v:ud v:nameU="msvThemeColors" v:val="VT0(36):26"/>
					<v:ud v:nameU="msvThemeEffects" v:val="VT0(16):26"/>
				</v:userDefs>
				<path d="M0 771.34 A35.3699 20.5513 -179.82 1 1 70.74 771.56 A35.3699 20.5513 -179.82 1 1 0 771.34 Z" class="st13"/>
			</g>
			<g id="shape15-75" v:mID="15" v:groupContext="shape">
				<title>Sheet.15</title>
				<v:userDefs>
					<v:ud v:nameU="msvThemeColors" v:val="VT0(36):26"/>
					<v:ud v:nameU="msvThemeEffects" v:val="VT0(16):26"/>
				</v:userDefs>
				<path d="M0 741.69 L0 771.34 L0 771.45 A35.37 20.5514 -179.82 0 0 70.74 771.45 L70.87 771.45 L70.87 741.69 L70.74
							 741.69 A35.3699 20.5513 0.18 0 1 0 741.69 L0 741.69 Z" class="st14"/>
				<path d="M0 741.69 L0 771.34 L0 771.45 A35.37 20.5514 -179.82 0 0 70.74 771.45 L70.87 771.45 L70.87 741.69 L70.74
							 741.69 A35.3699 20.5513 0.18 0 1 0 741.69" class="st15"/>
			</g>
			<g id="shape16-79" v:mID="16" v:groupContext="shape" transform="translate(0,0.000575512)">
				<title>Sheet.16</title>
				<v:userDefs>
					<v:ud v:nameU="msvThemeColors" v:val="VT0(36):26"/>
					<v:ud v:nameU="msvThemeEffects" v:val="VT0(16):26"/>
				</v:userDefs>
				<path d="M70.74 741.69 A35.3699 20.5513 -179.82 1 0 0 741.69 L0 771.45 A35.37 20.5514 -179.82 0 0 70.74 771.45 L70.87
							 771.45 L70.87 741.69 L70.74 741.69" class="st16"/>
			</g>
			<g id="shape12-82" v:mID="12" v:groupContext="groupContent">
				<v:textBlock v:margins="rect(4,4,4,4)"/>
				<v:textRect cx="35.4331" cy="803.202" width="56.34" height="22.4037"/>
				<text x="12.63" y="806.8" class="st4" v:langID="1033"><v:paragraph v:horizAlign="1"/><v:tabList/>Database</text>			</g>
		</g>
		<g id="shape17-84" v:mID="17" v:groupContext="shape" transform="translate(243,-589.5)">
			<title>Octagon.17</title>
			<desc>API Gateway</desc>
			<v:userDefs>
				<v:ud v:nameU="visVersion" v:val="VT0(14):26"/>
				<v:ud v:nameU="msvThemeColors" v:val="VT0(36):26"/>
				<v:ud v:nameU="msvThemeEffects" v:val="VT0(16):26"/>
			</v:userDefs>
			<v:textBlock v:margins="rect(4,4,4,4)"/>
			<v:textRect cx="36" cy="756" width="72" height="72"/>
			<g id="shadow17-85" v:groupContext="shadow" v:shadowOffsetX="1.44" v:shadowOffsetY="-1.44" v:shadowType="1"
					transform="matrix(1,0,0,1,1.44,1.44)" class="st1">
				<path d="M50.91 720 L21.09 720 L0 741.09 L0 770.91 L21.09 792 L50.91 792 L72 770.91 L72 741.09 L50.91 720 Z"
						class="st2"/>
			</g>
			<path d="M50.91 720 L21.09 720 L0 741.09 L0 770.91 L21.09 792 L50.91 792 L72 770.91 L72 741.09 L50.91 720 Z"
					class="st6"/>
			<text x="5.03" y="759.6" class="st4" v:langID="1033"><v:paragraph v:horizAlign="1"/><v:tabList/>API Gateway</text>		</g>
		<g id="shape18-90" v:mID="18" v:groupContext="shape" v:layerMember="0" transform="translate(264.088,-481.5)">
			<title>Dynamic connector</title>
			<v:userDefs>
				<v:ud v:nameU="msvThemeColors" v:val="VT0(36):26"/>
				<v:ud v:nameU="msvThemeEffects" v:val="VT0(16):26"/>
			</v:userDefs>
			<path d="M0 792 L0 835.59 L-39.09 835.59" class="st17"/>
		</g>
		<g id="shape19-95" v:mID="19" v:groupContext="shape" v:layerMember="0" transform="translate(293.912,-481.5)">
			<title>Dynamic connector.19</title>
			<v:userDefs>
				<v:ud v:nameU="msvThemeColors" v:val="VT0(36):26"/>
				<v:ud v:nameU="msvThemeEffects" v:val="VT0(16):26"/>
			</v:userDefs>
			<path d="M0 792 L0 835.59 L39.09 835.59" class="st17"/>
		</g>
		<g id="shape20-99" v:mID="20" v:groupContext="shape" v:layerMember="0" transform="translate(315,-508.725)">
			<title>Dynamic connector.20</title>
			<v:userDefs>
				<v:ud v:nameU="msvThemeColors" v:val="VT0(36):26"/>
				<v:ud v:nameU="msvThemeEffects" v:val="VT0(16):26"/>
			</v:userDefs>
			<path d="M0 783.22 L117 783.22 L117 782.77" class="st17"/>
		</g>
		<g id="shape21-103" v:mID="21" v:groupContext="shape" v:layerMember="0" transform="translate(159.044,-297)">
			<title>Dynamic connector.21</title>
			<v:userDefs>
				<v:ud v:nameU="msvThemeColors" v:val="VT0(36):26"/>
				<v:ud v:nameU="msvThemeEffects" v:val="VT0(16):26"/>
			</v:userDefs>
			<path d="M2.96 792 L15.04 792 L15.04 702" class="st17"/>
		</g>
		<g id="shape22-107" v:mID="22" v:groupContext="shape" v:layerMember="0" transform="translate(218.956,-297.75)">
			<title>Dynamic connector.22</title>
			<v:userDefs>
				<v:ud v:nameU="msvThemeColors" v:val="VT0(36):26"/>
				<v:ud v:nameU="msvThemeEffects" v:val="VT0(16):26"/>
			</v:userDefs>
			<path d="M-2.96 792 L-15.04 792 L-15.04 702.75" class="st17"/>
		</g>
		<g id="shape23-111" v:mID="23" v:groupContext="shape" v:layerMember="0" transform="translate(243,-198.567)">
			<title>Dynamic connector.23</title>
			<v:userDefs>
				<v:ud v:nameU="msvThemeColors" v:val="VT0(36):26"/>
				<v:ud v:nameU="msvThemeEffects" v:val="VT0(16):26"/>
			</v:userDefs>
			<path d="M9 792 L9 724.5" class="st17"/>
		</g>
		<g id="shape24-115" v:mID="24" v:groupContext="shape" v:layerMember="0" transform="translate(378.283,-198.567)">
			<title>Dynamic connector.24</title>
			<v:userDefs>
				<v:ud v:nameU="msvThemeColors" v:val="VT0(36):26"/>
				<v:ud v:nameU="msvThemeEffects" v:val="VT0(16):26"/>
			</v:userDefs>
			<path d="M-8.72 792 L-8.72 603.57 L-9.28 603.57" class="st17"/>
		</g>
		<g id="shape25-119" v:mID="25" v:groupContext="shape" v:layerMember="0" transform="translate(270,-553.5)">
			<title>Dynamic connector.25</title>
			<v:userDefs>
				<v:ud v:nameU="msvThemeColors" v:val="VT0(36):26"/>
				<v:ud v:nameU="msvThemeEffects" v:val="VT0(16):26"/>
			</v:userDefs>
			<path d="M9 792 L9 756" class="st17"/>
		</g>
		<g id="shape26-123" v:mID="26" v:groupContext="shape" transform="translate(45,-360)">
			<title>Sheet.26</title>
			<desc>Service Layer</desc>
			<v:userDefs>
				<v:ud v:nameU="msvThemeColors" v:val="VT0(36):26"/>
				<v:ud v:nameU="msvThemeEffects" v:val="VT0(16):26"/>
			</v:userDefs>
			<v:textBlock v:margins="rect(4,4,4,4)"/>
			<v:textRect cx="249.375" cy="792" width="498.75" height="0"/>
			<g id="shadow26-124" v:groupContext="shadow" v:shadowOffsetX="1.44" v:shadowOffsetY="-1.44" v:shadowType="1"
					transform="matrix(1,0,0,1,1.44,1.44)" class="st1">
				<path d="M0 792 L9 792 L486 792 L498.75 792" class="st18"/>
			</g>
			<path d="M0 792 L9 792 L486 792 L498.75 792" class="st19"/>
			<rect v:rectContext="textBkgnd" x="228.049" y="787.2" width="42.6519" height="9.59985" class="st20"/>
			<text x="228.05" y="794.4" class="st21" v:langID="1033"><v:paragraph v:horizAlign="1"/><v:tabList/>Service Layer</text>		</g>
		<g id="shape27-132" v:mID="27" v:groupContext="shape" transform="translate(45.375,-571.5)">
			<title>Sheet.27</title>
			<desc>Application Layer</desc>
			<v:userDefs>
				<v:ud v:nameU="msvThemeColors" v:val="VT0(36):26"/>
				<v:ud v:nameU="msvThemeEffects" v:val="VT0(16):26"/>
			</v:userDefs>
			<v:textBlock v:margins="rect(4,4,4,4)"/>
			<v:textRect cx="249.375" cy="792" width="498.75" height="0"/>
			<g id="shadow27-133" v:groupContext="shadow" v:shadowOffsetX="1.44" v:shadowOffsetY="-1.44" v:shadowType="1"
					transform="matrix(1,0,0,1,1.44,1.44)" class="st1">
				<path d="M0 792 L9 792 L486 792 L498.75 792" class="st18"/>
			</g>
			<path d="M0 792 L9 792 L486 792 L498.75 792" class="st19"/>
			<rect v:rectContext="textBkgnd" x="221.248" y="787.2" width="56.253" height="9.59985" class="st20"/>
			<text x="221.25" y="794.4" class="st21" v:langID="1033"><v:paragraph v:horizAlign="1"/><v:tabList/>Application Layer</text>		</g>
		<g id="shape28-141" v:mID="28" v:groupContext="shape" transform="translate(45,-249.75)">
			<title>Sheet.28</title>
			<desc>Persistence Layer</desc>
			<v:userDefs>
				<v:ud v:nameU="msvThemeColors" v:val="VT0(36):26"/>
				<v:ud v:nameU="msvThemeEffects" v:val="VT0(16):26"/>
			</v:userDefs>
			<v:textBlock v:margins="rect(4,4,4,4)"/>
			<v:textRect cx="249.375" cy="792" width="498.75" height="0"/>
			<g id="shadow28-142" v:groupContext="shadow" v:shadowOffsetX="1.44" v:shadowOffsetY="-1.44" v:shadowType="1"
					transform="matrix(1,0,0,1,1.44,1.44)" class="st1">
				<path d="M0 792 L9 792 L486 792 L498.75 792" class="st18"/>
			</g>
			<path d="M0 792 L9 792 L486 792 L498.75 792" class="st19"/>
			<rect v:rectContext="textBkgnd" x="221.067" y="787.2" width="56.6164" height="9.59985" class="st20"/>
			<text x="221.07" y="794.4" class="st21" v:langID="1033"><v:paragraph v:horizAlign="1"/><v:tabList/>Persistence Layer</text>		</g>
		<g id="group29-150" transform="translate(244.134,-699.307)" v:mID="29" v:groupContext="group">
			<v:userDefs>
				<v:ud v:nameU="visVersion" v:prompt="" v:val="VT0(14):26"/>
				<v:ud v:nameU="msvThemeColors" v:val="VT0(36):26"/>
				<v:ud v:nameU="msvThemeEffects" v:val="VT0(16):26"/>
			</v:userDefs>
			<title>Web page</title>
			<g id="shape30-151" v:mID="30" v:groupContext="shape" transform="translate(2.61785,-6.02106)">
				<title>Sheet.30</title>
				<g id="shadow30-152" v:groupContext="shadow" v:shadowOffsetX="1.44" v:shadowOffsetY="-1.44" v:shadowType="1"
						transform="matrix(1,0,0,1,1.44,1.44)" class="st1">
					<path d="M0 747.35 L0 792 L65.55 792 L65.55 747.35 L0 747.35 Z" class="st22"/>
				</g>
				<path d="M0 747.35 L0 792 L65.55 792 L65.55 747.35 L0 747.35 Z" class="st23"/>
			</g>
			<g id="shape31-155" v:mID="31" v:groupContext="shape" transform="translate(3.03487,-6.47106)">
				<title>Sheet.31</title>
				<path d="M0 748.25 L0 792 L64.71 792 L64.71 748.25 L0 748.25 Z" class="st24"/>
			</g>
			<g id="shape32-161" v:mID="32" v:groupContext="shape" transform="translate(2.80087,-38.7487)">
				<title>Sheet.32</title>
				<rect x="0" y="784.75" width="65.3112" height="7.2504" class="st25"/>
			</g>
			<g id="shape33-165" v:mID="33" v:groupContext="shape" transform="translate(2.80087,-44.533)">
				<title>Sheet.33</title>
				<rect x="0" y="785.964" width="65.4507" height="6.0363" class="st26"/>
			</g>
			<g id="shape34-171" v:mID="34" v:groupContext="shape" transform="translate(2.99437,-41.4577)">
				<title>Sheet.34</title>
				<path d="M0 792 L42.09 792" class="st27"/>
			</g>
			<g id="shape35-174" v:mID="35" v:groupContext="shape" transform="translate(42.7609,-41.4577)">
				<title>Sheet.35</title>
				<path d="M0 792 L7.5 792" class="st28"/>
			</g>
			<g id="group36-177" transform="translate(8.40967,-13.5397)" v:mID="36" v:groupContext="group">
				<title>Sheet.36</title>
				<g id="shape37-178" v:mID="37" v:groupContext="shape" transform="translate(4.2291,-0.261)">
					<title>Sheet.37</title>
					<path d="M1.02 784.38 a0.70697 0.70697 0 0 1 -0.3834 0.4815 A1.77461 1.77461 0 0 1 0.45 785.77 A1.12476 1.12476
								 -180 0 0 0 786.44 A1.26345 1.26345 -180 0 0 0.19 786.76 A1.98404 1.98404 -180 0 0 0.45 787.5 A2.22099
								 2.22099 0 0 1 1.02 788.31 A1.481 1.481 -180 0 0 1.78 789.08 a0.702648 0.702648 0 0 1 0.6984 0.5634
								 A19.2842 19.2842 -180 0 0 2.59 790.99 A1.14912 1.14912 -180 0 0 2.86 791.64 A8.88815 8.88815 -180
								 0 0 4.06 792 A34.4709 34.4709 0 0 1 5.12 791.44 A2.62691 2.62691 -180 0 0 6.35 790.7 a0.489177 0.489177
								 0 0 1 0.3816 -0.4761 A1.42159 1.42159 -180 0 0 7.86 789.95 a0.847187 0.847187 -180 0 0 0.4023 -0.6984
								 a0.664578 0.664578 0 0 1 0.3411 -0.6282 A2.66825 2.66825 -180 0 0 9.23 787.54 a0.963622 0.963622
								 -180 0 0 -0.6057 -0.1116 A6.56066 6.56066 -180 0 0 7.64 787.3 A6.42275 6.42275 -180 0 0 6.15 786.96
								 A6.7089 6.7089 0 0 1 5.84 785.99 A2.8895 2.8895 -180 0 0 4.64 785.7 A11.9118 11.9118 -180 0 0 3.94
								 784.9 A5.95146 5.95146 0 0 1 3.54 784.92 A6.15636 6.15636 0 0 1 1.02 784.38 Z" class="st29"/>
				</g>
				<g id="shape38-180" v:mID="38" v:groupContext="shape" transform="translate(-2.41235E-006,0)">
					<title>Sheet.38</title>
					<path d="M19.88 784.36 A2.70924 2.70924 0 0 1 19.68 783.53 L19.74 782.87 L19.41 783.01 a0.343046 0.343046 -180
								 0 0 -0.2916 -0.1809 A3.34721 3.34721 -180 0 0 18.53 783.59 A3.09937 3.09937 0 0 1 17.81 783.98 a0.639023
								 0.639023 0 0 1 -0.4293 -0.5409 a0.811174 0.811174 -180 0 0 -0.5652 -0.4266 A1.12371 1.12371 0 0
								 1 16.77 781.86 A11.6 11.6 -180 0 0 16.55 780.71 A6.16691 6.16691 0 0 1 16.95 779.04 A9.22865 9.22865
								 -180 0 0 16.91 778.28 a0.318267 0.318267 0 0 1 0.4248 -0.2934 A4.58252 4.58252 -180 0 0 17.9 777.06
								 a0.83087 0.83087 0 0 1 0.4275 0.7002 a0.799792 0.799792 -180 0 0 0.5607 0.0198 L18.96 777.37 L19.16
								 777.22 L19.5 777.87 A10.1569 10.1569 -180 0 0 18.1 775.54 A2.47101 2.47101 0 0 1 17.83 776.39 A1.27524
								 1.27524 0 0 1 17.04 776.05 A1.09533 1.09533 -180 0 0 16.91 776.52 A13.7773 13.7773 0 0 1 17.09 777.15
								 a0.573006 0.573006 0 0 1 -0.2223 0.6075 a0.49998 0.49998 0 0 1 -0.6318 -0.4266 A5.1136 5.1136 0
								 0 1 15.94 776.61 a0.752752 0.752752 0 0 1 0.5202 -0.1791 A1.42139 1.42139 -180 0 0 15.87 775.71
								 L16.16 775.19 A1.36925 1.36925 0 0 1 15.96 774.52 a0.386506 0.386506 -180 0 0 2.13163E-014 -0.5436
								 A7.8771 7.8771 -180 0 0 15.11 773.39 A5.1624 5.1624 0 0 1 15.69 774.04 a0.267956 0.267956 0 0 1
								 -0.1593 0.3618 A6.33789 6.33789 0 0 1 15.42 774.02 a0.274651 0.274651 -180 0 0 -0.4059 -0.0459 A31.5918
								 31.5918 0 0 1 14.52 773.73 a0.402303 0.402303 0 0 1 -0.0927 -0.405 A3.22421 3.22421 -180 0 0 13.71
								 772.81 a0.312538 0.312538 0 0 1 -0.0882 -0.4275 A2.30443 2.30443 0 0 1 14.12 772.5 A10.1356 10.1356
								 -180 0 0 10.15 771.69 A13.1332 13.1332 -180 0 0 9.77 771.71 A9.05051 9.05051 0 0 1 11.69 771.86
								 a0.837324 0.837324 0 0 1 -0.5175 0.2178 L10.77 772.14 L11.17 772.3 A2.49637 2.49637 0 0 1 12 772.92
								 a0.278716 0.278716 0 0 1 -0.1035 0.4923 a0.437205 0.437205 0 0 1 -0.1746 0.2754 A6.18927 6.18927
								 0 0 1 13.97 778.46 A6.19691 6.19691 0 0 1 8.17 784.64 A11.9118 11.9118 0 0 1 8.87 785.44 A2.8895
								 2.8895 0 0 1 10.06 785.73 A6.59371 6.59371 -180 0 0 10.38 786.7 A6.42275 6.42275 0 0 1 11.87 787.04
								 A6.57564 6.57564 0 0 1 12.86 787.17 a0.964719 0.964719 0 0 1 0.6057 0.1116 A2.66215 2.66215 0 0
								 1 12.84 788.37 a0.665916 0.665916 -180 0 0 -0.3411 0.6282 a0.847187 0.847187 0 0 1 -0.4023 0.6984
								 A1.42861 1.42861 0 0 1 10.97 789.96 a0.490188 0.490188 -180 0 0 -0.3816 0.4761 A2.62691 2.62691
								 0 0 1 9.34 791.18 A34.4709 34.4709 -180 0 0 8.29 791.74 A9.02313 9.02313 0 0 1 7.09 791.38 A1.15143
								 1.15143 0 0 1 6.82 790.73 A19.2842 19.2842 0 0 1 6.71 789.38 a0.70332 0.70332 -180 0 0 -0.6984 -0.5634
								 A1.4806 1.4806 0 0 1 5.25 788.05 A2.22099 2.22099 -180 0 0 4.68 787.24 A1.98404 1.98404 0 0 1 4.41
								 786.5 A1.24324 1.24324 0 0 1 4.23 786.18 A1.12476 1.12476 0 0 1 4.68 785.5 A1.77461 1.77461 -180
								 0 0 4.87 784.6 a0.70697 0.70697 -180 0 0 0.3834 -0.4815 A6.14944 6.14944 0 0 1 3.9 783.3 A36.1488
								 36.1488 -180 0 0 3.9 783.77 L4.21 784.04 L4.07 784.31 a0.911864 0.911864 0 0 1 -0.6534 -0.6768 A1.41394
								 1.41394 -180 0 0 3.15 782.8 a0.388789 0.388789 0 0 1 -0.3582 -0.1341 A2.58985 2.58985 -180 0 0 2.39
								 781.95 L1.96 781.86 A3.64363 3.64363 0 0 1 1.5 780.75 A9.17783 9.17783 0 0 1 1.5 777.4 A7.51516
								 7.51516 0 0 1 1.99 776.21 A6.18697 6.18697 0 0 1 2.52 775.17 A10.0872 10.0872 -180 0 0 0 781.85
								 A10.1542 10.1542 -180 0 0 10.15 792 A10.1486 10.1486 -180 0 0 20.13 783.67 A1.40465 1.40465 0 0
								 1 19.88 784.36 Z" class="st30"/>
				</g>
				<g id="shape39-184" v:mID="39" v:groupContext="shape" transform="translate(1.9935,-15.7842)">
					<title>Sheet.39</title>
					<path d="M2.26 789.4 A9.69802 9.69802 0 0 1 4.31 788.3 a0.366164 0.366164 -180 0 0 0.1368 0.4752 A1.24459 1.24459
								 0 0 1 5.05 788.3 A2.10241 2.10241 -180 0 0 5.52 788.39 A1.62409 1.62409 0 0 1 5.57 788.06 A6.28486
								 6.28486 -180 0 0 4.5 788.18 A10.1762 10.1762 -180 0 0 0.53 790.95 A6.25451 6.25451 -180 0 0 0 792
								 A6.99999 6.99999 0 0 1 2.26 789.4 Z" class="st31"/>
				</g>
				<g id="shape40-188" v:mID="40" v:groupContext="shape" transform="translate(2.33547,-7.362)">
					<title>Sheet.40</title>
					<path d="M8.99 782 a0.331938 0.331938 0 0 1 -0.3879 -0.0648 a0.828549 0.828549 -180 0 0 -0.3519 -0.0495 A3.89161
								 3.89161 0 0 1 7.79 781.16 a0.361437 0.361437 0 0 1 0.1953 -0.4635 a0.20473 0.20473 0 0 1 -0.1719
								 -0.2844 a0.899093 0.899093 -180 0 0 -0.9027 -0.4932 a0.28517 0.28517 -180 0 0 -0.3501 0.1827 A11.3028
								 11.3028 0 0 1 6.26 780.1 A1.28301 1.28301 0 0 1 7.25 780.48 A1.16559 1.16559 0 0 1 6.4 781.63 a0.483564
								 0.483564 0 0 1 -0.4977 -0.3834 A1.05418 1.05418 -180 0 0 5.3 781.2 a0.669503 0.669503 0 0 1 -0.6525
								 -0.0207 a0.836989 0.836989 -180 0 0 -0.9036 0.6507 A1.77152 1.77152 0 0 1 4.3 782.46 a0.392608 0.392608
								 -180 0 0 0.0225 0.5202 A1.74847 1.74847 -180 0 0 5.02 782.08 a0.620179 0.620179 0 0 1 0.585 -0.6084
								 A2.42999 2.42999 0 0 1 5.86 781.97 a0.387452 0.387452 0 0 1 0.5868 -0.0243 A23.1259 23.1259 -180
								 0 0 7.01 782.76 A4.94276 4.94276 -180 0 0 7.19 783.64 a0.488612 0.488612 -180 0 0 0.3816 0.1548
								 a0.813026 0.813026 0 0 1 -0.6066 0.2034 a0.906314 0.906314 -180 0 0 -0.3402 -0.5634 A2.91775 2.91775
								 0 0 1 5.74 783.45 A1.03052 1.03052 -180 0 0 5.97 784.15 a0.24826 0.24826 0 0 1 -0.1341 0.4761 a0.641313
								 0.641313 0 0 1 -0.4302 -0.225 A2.2128 2.2128 -180 0 0 4.86 784.9 A1.19173 1.19173 0 0 1 4.3 785.03
								 L3.8 785.52 A1.65299 1.65299 0 0 1 3.11 786.43 a0.916517 0.916517 -180 0 0 -0.5436 0.7209 A1.44588
								 1.44588 0 0 1 2.34 788.12 a0.601051 0.601051 0 0 1 -0.0207 -0.5841 L2.1 786.97 L1.4 786.65 L1.29
								 786.85 L0.59 786.56 a0.262685 0.262685 -180 0 0 -0.1836 0.2916 A1.33657 1.33657 0 0 1 0.05 787.58
								 A10.8454 10.8454 -180 0 0 0 788.61 A2.28717 2.28717 -180 0 0 0.48 788.95 L0.72 788.63 L1.19 788.66
								 A1.73503 1.73503 -180 0 0 0.86 789.58 A1.39091 1.39091 0 0 1 1.58 790.16 A7.3635 7.3635 -180 0 0
								 1.56 790.66 A6.14944 6.14944 -180 0 0 2.91 791.48 A2.34386 2.34386 -180 0 0 2.95 791.33 L3.51 791.36
								 a0.281332 0.281332 -180 0 0 0.2025 0.3618 A1.28046 1.28046 -180 0 0 4.1 791.4 A3.00004 3.00004 0
								 0 1 5 791.94 a0.57688 0.57688 0 0 1 0.2916 -0.3132 a0.881735 0.881735 0 0 1 0.5418 0.3726 A6.19625
								 6.19625 -180 0 0 11.64 785.82 A6.18927 6.18927 -180 0 0 9.39 781.04 A1.80061 1.80061 0 0 1 9.05
								 781.27 A1.20535 1.20535 0 0 1 8.99 782 Z" class="st31"/>
				</g>
				<g id="shape41-191" v:mID="41" v:groupContext="shape" transform="translate(1.35012,-7.6869)">
					<title>Sheet.41</title>
					<path d="M6.18 780.34 a0.0769461 0.0769461 0 0 1 -0.0171 -0.0531 A2.03994 2.03994 0 0 1 5.7 780.2 A1.25377 1.25377
								 -180 0 0 5.09 780.67 a0.366164 0.366164 0 0 1 -0.1368 -0.4752 A9.75284 9.75284 -180 0 0 2.9 781.3
								 A7.16915 7.16915 -180 0 0 0.15 785.09 A9.17963 9.17963 -180 0 0 0.15 788.44 A3.63081 3.63081 -180
								 0 0 0.61 789.54 L1.03 789.64 A2.55435 2.55435 0 0 1 1.44 790.35 a0.389536 0.389536 -180 0 0 0.3582
								 0.1341 A1.41394 1.41394 0 0 1 2.07 791.32 a0.911864 0.911864 -180 0 0 0.6534 0.6768 L2.86 791.73
								 L2.55 791.46 A18.0802 18.0802 0 0 1 2.57 790.49 A1.38665 1.38665 -180 0 0 1.85 789.9 A1.73503 1.73503
								 0 0 1 2.18 788.98 L1.71 788.96 L1.46 789.28 A2.28717 2.28717 0 0 1 0.99 788.94 A10.5552 10.5552
								 0 0 1 1.03 787.9 A1.33047 1.33047 -180 0 0 1.39 787.18 a0.262685 0.262685 0 0 1 0.1836 -0.2916 L2.28
								 787.18 L2.39 786.98 L3.08 787.3 L3.31 787.86 a0.6035 0.6035 -180 0 0 0.0207 0.5841 A1.44588 1.44588
								 -180 0 0 3.55 787.47 a0.916517 0.916517 0 0 1 0.5436 -0.7209 A1.64854 1.64854 -180 0 0 4.79 785.85
								 L5.29 785.36 A1.20251 1.20251 -180 0 0 5.85 785.22 A2.2128 2.2128 0 0 1 6.39 784.73 a0.641313 0.641313
								 -180 0 0 0.4302 0.225 a0.24826 0.24826 -180 0 0 0.1341 -0.4761 A1.03052 1.03052 0 0 1 6.73 783.78
								 A2.94912 2.94912 -180 0 0 7.61 783.76 a0.906314 0.906314 0 0 1 0.3402 0.5634 a0.813026 0.813026
								 -180 0 0 0.6066 -0.2034 a0.488612 0.488612 0 0 1 -0.3816 -0.1548 A4.94276 4.94276 0 0 1 7.99 783.08
								 A24.0714 24.0714 0 0 1 7.43 782.27 a0.387452 0.387452 -180 0 0 -0.5868 0.0243 A2.50251 2.50251 -180
								 0 0 6.6 781.8 a0.619574 0.619574 -180 0 0 -0.585 0.6084 A1.74847 1.74847 0 0 1 5.32 783.31 a0.392608
								 0.392608 0 0 1 -0.0225 -0.5202 A1.77152 1.77152 -180 0 0 4.73 782.16 a0.837827 0.837827 0 0 1 0.9036
								 -0.6507 a0.669409 0.669409 -180 0 0 0.6525 0.0207 A1.05418 1.05418 0 0 1 6.89 781.58 a0.483564 0.483564
								 -180 0 0 0.4977 0.3834 A1.16535 1.16535 -180 0 0 8.24 780.81 A1.2795 1.2795 -180 0 0 7.25 780.43
								 A3.61812 3.61812 0 0 1 6.18 780.34 Z" class="st32"/>
				</g>
				<g id="shape42-197" v:mID="42" v:groupContext="shape" transform="translate(4.2282,-0.2592)">
					<title>Sheet.42</title>
					<path d="M8.63 787.43 A6.56066 6.56066 -180 0 0 7.64 787.3 A6.42275 6.42275 -180 0 0 6.15 786.96 A6.7089 6.7089
								 0 0 1 5.84 785.99 A2.8895 2.8895 -180 0 0 4.64 785.7 A4.11392 4.11392 -180 0 0 3.4 784.53 a0.57688
								 0.57688 -180 0 0 -0.2916 0.3132 A3.01883 3.01883 -180 0 0 2.21 784.3 A1.29417 1.29417 0 0 1 1.83
								 784.62 a0.282307 0.282307 0 0 1 -0.2025 -0.3618 L1.06 784.24 a0.870906 0.870906 0 0 1 -0.4257 0.6291
								 A1.77461 1.77461 0 0 1 0.45 785.77 A1.12476 1.12476 -180 0 0 0 786.44 A1.26345 1.26345 -180 0 0
								 0.19 786.76 A1.98404 1.98404 -180 0 0 0.45 787.5 A2.22099 2.22099 0 0 1 1.02 788.31 A1.481 1.481
								 -180 0 0 1.78 789.08 a0.702648 0.702648 0 0 1 0.6984 0.5634 A19.2842 19.2842 -180 0 0 2.59 790.99
								 A1.14912 1.14912 -180 0 0 2.86 791.64 A8.88815 8.88815 -180 0 0 4.06 792 A34.4709 34.4709 0 0 1
								 5.12 791.44 A2.62691 2.62691 -180 0 0 6.35 790.7 a0.489177 0.489177 0 0 1 0.3816 -0.4761 A1.42159
								 1.42159 -180 0 0 7.86 789.95 a0.847187 0.847187 -180 0 0 0.4023 -0.6984 a0.664578 0.664578 0 0 1
								 0.3411 -0.6282 A2.66825 2.66825 -180 0 0 9.23 787.54 a0.949115 0.949115 -180 0 0 -0.6048 -0.1134
								 Z" class="st33"/>
				</g>
				<g id="shape43-201" v:mID="43" v:groupContext="shape" transform="translate(16.5492,-7.6401)">
					<title>Sheet.43</title>
					<path d="M3.72 788.71 A10.6372 10.6372 -180 0 0 3.6 787.74 L3.03 785.73 A9.35038 9.35038 -180 0 0 2.95 785.51
								 L2.61 784.86 L2.41 785.02 L2.34 785.42 a0.799792 0.799792 0 0 1 -0.5607 -0.0198 a0.83087 0.83087
								 -180 0 0 -0.4275 -0.7002 A4.55747 4.55747 0 0 1 0.78 785.63 a0.318713 0.318713 -180 0 0 -0.4248
								 0.2934 A9.20833 9.20833 0 0 1 0.4 786.68 A6.15648 6.15648 -180 0 0 0 788.35 A11.6 11.6 0 0 1 0.22
								 789.5 A1.12371 1.12371 -180 0 0 0.27 790.65 a0.811174 0.811174 0 0 1 0.5652 0.4266 a0.640179 0.640179
								 -180 0 0 0.4293 0.5409 A3.09937 3.09937 -180 0 0 1.98 791.23 A3.39287 3.39287 0 0 1 2.57 790.47
								 a0.343046 0.343046 0 0 1 0.2916 0.1809 L3.19 790.51 L3.13 791.17 A2.70924 2.70924 -180 0 0 3.33
								 792 A1.40465 1.40465 -180 0 0 3.58 791.31 A9.50223 9.50223 -180 0 0 3.72 790.27 L3.72 788.71 L3.72
								 788.71 Z" class="st34"/>
				</g>
				<g id="shape44-204" v:mID="44" v:groupContext="shape" transform="translate(13.5735,-14.2215)">
					<title>Sheet.44</title>
					<path d="M0.14 787.03 A3.2765 3.2765 0 0 1 0.86 787.54 a0.397626 0.397626 -180 0 0 0.0927 0.405 A24.8975 24.8975
								 -180 0 0 1.45 788.2 a0.273704 0.273704 0 0 1 0.4059 0.0477 A6.60479 6.60479 -180 0 0 1.96 788.63
								 a0.267956 0.267956 -180 0 0 0.1593 -0.3618 A5.1624 5.1624 -180 0 0 1.53 787.61 A7.8771 7.8771 0
								 0 1 2.39 788.2 a0.386393 0.386393 0 0 1 1.77636E-015 0.5436 A1.36925 1.36925 -180 0 0 2.59 789.41
								 L2.3 789.93 A1.41689 1.41689 0 0 1 2.89 790.65 a0.755203 0.755203 -180 0 0 -0.5202 0.1791 A5.27012
								 5.27012 -180 0 0 2.66 791.56 a0.500835 0.500835 -180 0 0 0.6318 0.4266 a0.572672 0.572672 -180 0
								 0 0.2223 -0.6075 A13.7773 13.7773 -180 0 0 3.34 790.74 A1.09533 1.09533 0 0 1 3.47 790.27 A1.27524
								 1.27524 -180 0 0 4.26 790.61 A2.47681 2.47681 -180 0 0 4.53 789.76 a0.457656 0.457656 -180 0 0 -0.0252
								 -0.0306 A106.052 106.052 -180 0 0 2.77 788.03 A10.2186 10.2186 -180 0 0 0.55 786.72 A2.29228 2.29228
								 -180 0 0 0.05 786.6 a0.312029 0.312029 -180 0 0 0.0873 0.4275 Z" class="st32"/>
				</g>
				<g id="shape45-207" v:mID="45" v:groupContext="shape" transform="translate(7.5168,-17.3285)">
					<title>Sheet.45</title>
					<path d="M-0 789.93 A65.2082 65.2082 0 0 1 1.08 790.07 A11.3028 11.3028 -180 0 0 1.39 790.07 a0.28517 0.28517
								 0 0 1 0.3501 -0.1827 a0.899093 0.899093 0 0 1 0.9027 0.4932 a0.205412 0.205412 -180 0 0 0.1719 0.2844
								 L2.83 790.65 a0.0833397 0.0833397 0 0 1 -0.0234 0.0153 a0.362204 0.362204 -180 0 0 -0.1953 0.4635
								 A3.89161 3.89161 -180 0 0 3.07 791.85 a0.813667 0.813667 0 0 1 0.3519 0.0495 a0.330569 0.330569
								 -180 0 0 0.3879 0.0648 A1.19762 1.19762 -180 0 0 3.87 791.24 a0.924601 0.924601 -180 0 0 0.5139
								 -0.504 a0.278472 0.278472 -180 0 0 0.1035 -0.4923 A2.50147 2.50147 -180 0 0 3.66 789.63 L3.26 789.47
								 L3.66 789.41 a0.84245 0.84245 -180 0 0 0.5175 -0.2178 A9.05051 9.05051 -180 0 0 2.26 789.04 A10.7533
								 10.7533 -180 0 0 1.74 789.07 L0.23 789.32 A4.80847 4.80847 -180 0 0 0.02 789.37 A1.37062 1.37062
								 0 0 1 0 789.93 Z" class="st35"/>
				</g>
			</g>
			<g id="shape46-213" v:mID="46" v:groupContext="shape" transform="translate(8.00467,-13.1239)">
				<title>Sheet.46</title>
				<path d="M10.56 770.88 A10.5288 10.5288 -180 0 0 3.1 773.98 A10.5276 10.5276 -180 0 0 0 781.44 A10.526 10.526 -180
							 0 0 3.1 788.9 A10.5296 10.5296 -180 0 0 10.56 792 A10.5296 10.5296 -180 0 0 18.03 788.9 A10.526 10.526
							 -180 0 0 21.12 781.44 A10.5276 10.5276 -180 0 0 18.03 773.98 A10.5288 10.5288 -180 0 0 10.56 770.88
							 ZM10.56 791.55 A10.081 10.081 0 0 1 3.41 788.59 A10.0773 10.0773 0 0 1 0.45 781.44 A10.0788 10.0788
							 0 0 1 3.41 774.3 A10.0804 10.0804 0 0 1 10.56 771.33 A10.0804 10.0804 0 0 1 17.71 774.3 A10.0788 10.0788
							 0 0 1 20.67 781.44 A10.0773 10.0773 0 0 1 17.71 788.59 A10.081 10.081 0 0 1 10.56 791.55 Z"
						class="st36"/>
			</g>
			<g id="shape47-215" v:mID="47" v:groupContext="shape" transform="translate(2.61457,-6.02106)">
				<title>Sheet.47</title>
				<path d="M0 747.35 L0 792 L65.55 792 L65.55 747.35 L0 747.35 Z" class="st37"/>
			</g>
			<g id="shape48-217" v:mID="48" v:groupContext="shape" transform="translate(35.0605,-17.0623)">
				<title>Sheet.48</title>
				<path d="M0.45 791.1 L28.02 791.1 a0.449588 0.449588 0 0 1 0.45 0.45 a0.450742 0.450742 0 0 1 -0.45 0.45 L0.45 792
							 a0.450742 0.450742 0 0 1 -0.45 -0.45 a0.449588 0.449588 0 0 1 0.45 -0.45 ZM0.45 785.21 L28.02 785.21
							 a0.450742 0.450742 0 0 1 0.45 0.45 a0.449588 0.449588 0 0 1 -0.45 0.45 L0.45 786.11 a0.449588 0.449588
							 0 0 1 -0.45 -0.45 a0.450742 0.450742 0 0 1 0.45 -0.45 ZM0.45 779.33 L28.02 779.33 a0.449588 0.449588
							 0 0 1 0.45 0.45 a0.450742 0.450742 0 0 1 -0.45 0.45 L0.45 780.23 a0.450742 0.450742 0 0 1 -0.45 -0.45
							 a0.449588 0.449588 0 0 1 0.45 -0.45 Z" class="st36"/>
			</g>
		</g>
		<g id="shape49-219" v:mID="49" v:groupContext="shape" v:layerMember="0" transform="translate(270,-661.5)">
			<title>Dynamic connector.49</title>
			<v:userDefs>
				<v:ud v:nameU="msvThemeColors" v:val="VT0(36):26"/>
				<v:ud v:nameU="msvThemeEffects" v:val="VT0(16):26"/>
			</v:userDefs>
			<path d="M9 792 L9 748.17" class="st17"/>
		</g>
	</g>
</svg>
